# xmcd
#
# Track frame offsets:
#	150
#	14152
#	35777
#	51145
#	66577
#	84552
#	100737
#	116010
#	142922
#	156117
#	175765
#	193000
#	213782
#	227495
#	249970
#	263515
#	275302
#	293945
#	307177
#	312765
#
# Disc length: 4352
#
# Revision: 4
# Processed by: cddbd v1.5.1PL0 Copyright (c) Steve Scherf et al.
# Submitted via: CDex 1.51
# Normalized: r3:TDELIM( - )
#
DISCID=1c10fe14
DTITLE=Various Artist - Beyond Nashville -The Twisted Heart Of Country Music - CD 2 Of 2
DYEAR=2001
DGENRE=Country
TTITLE0=Ryan Adams - To Be Young (Is To Be Sad Is To Be High)
TTITLE1=Emmylou Harris - I Don't Wanna Talk About It Now
TTITLE2=The Blind Boys Of Alabama - Run On For A Long Time
TTITLE3=Steve Earle - Until The Day I Die
TTITLE4=Gillian Welch - Orphan Girl
TTITLE5=Giant Sand Feat. Julianna Hatfield - Temptation Of Egg
TTITLE6=Stacey Earle - Must Be Love
TTITLE7=Willard Grant Conspiracy - Evening Mass
TTITLE8=Lucinda Williams - One Night Stand
TTITLE9=Lambchop - Beyond Belief
TTITLE10=Handsome Family - So Much Wine
TTITLE11=Alejandro Escovado - Pissed Off  (2am)
TTITLE12=Smog - The Desert
TTITLE13=Sparklehorse - Comfort Me
TTITLE14=Son Volt - Windfall
TTITLE15=Noahjohn - Atlas Nails
TTITLE16=Jim White - Handcuffed To A Fence In Mississippi
TTITLE17=Oh Susanna - Ted's So Wasted
TTITLE18=The Carter Family - Theme (Sunnyside Out) - XET Station Break
TTITLE19=Los Super Seven - Paloma Guarmera
EXTD=(c)2001 Union Square Music UK\nupc 698458220523, Disc 2 of 2 YEAR: 2001
EXTT0=
EXTT1=
EXTT2=
EXTT3=
EXTT4=
EXTT5=
EXTT6=
EXTT7=
EXTT8=
EXTT9=
EXTT10=
EXTT11=
EXTT12=
EXTT13=
EXTT14=
EXTT15=
EXTT16=
EXTT17=
EXTT18=
EXTT19=
PLAYORDER=
